<?xml version="1.0" encoding="UTF-8"?><!DOCTYPE svg PUBLIC '-//W3C//DTD SVG 1.1//EN' 'http://www.w3.org/Graphics/SVG/1.1/DTD/svg11.dtd'><svg id="arrow" xmlns="http://www.w3.org/2000/svg" xml:space="preserve" height="32px" viewBox="0 0 32 32" width="32px" version="1.1" y="0px" x="0px" xmlns:xlink="http://www.w3.org/1999/xlink" enable-background="new 0 0 32 32"><path fill="#fff" clip-rule="evenodd" d="m16 28c-0.018 0-0.031-0.009-0.049-0.01-0.241-0.007-0.481-0.092-0.666-0.275-0.033-0.034-0.048-0.077-0.075-0.114l-8.925-8.925c-0.384-0.384-0.384-1.006 0-1.391 0.385-0.384 1.007-0.384 1.391 0l7.324 7.324v-19.609c0-0.553 0.447-1 1-1s1 0.447 1 1v19.609l7.324-7.324c0.384-0.384 1.006-0.384 1.391 0 0.384 0.385 0.384 1.007 0 1.391l-8.925 8.925c-0.027 0.037-0.042 0.08-0.075 0.114-0.185 0.184-0.425 0.269-0.666 0.275-0.018 0.001-0.031 0.01-0.049 0.01z" fill-rule="evenodd"/></svg>